<svg version="1" xmlns="http://www.w3.org/2000/svg" width="432" height="432" viewBox="0 0 324.000000 324.000000"><path d="M203 154v32h13l-.1-9c-.1-9.1-.1-9.1 3.2-12l3.3-2.9 6.2 10.7c3.5 5.9 6.6 11.3 7.1 12 .8 1.3 12.8 2 14 .8.3-.3-3.6-7.3-8.7-15.7l-9.2-15.1 8.8-8.3 8.8-8.3-4.9-.4c-7.5-.6-11 .5-16.2 5.5-10.1 9.5-12.3 11.1-12.4 9.1v-16.2l.1-14.2h-13v32zM38.4 137.4c-8.1 2.5-12.4 7.4-12.4 14.1 0 8 5.2 12.5 16.8 14.7 9.9 1.8 12.7 3.1 13 5.9.4 3.6-2.1 5.3-7.6 5.2-5.6 0-9-1.6-10.1-4.6-.8-2-1.6-2.2-6.5-2.1-3.1.1-5.9.4-6.2.7-.3.3 0 2.4.7 4.7 2.3 7.7 11.1 12 23.5 11.5 8.1-.4 12.4-1.9 15.9-5.5 2.5-2.6 3-4.1 3.3-9.5.4-6.3.3-6.6-3-9.9-3.1-3.1-6.8-4.7-13.8-6-12.3-2.1-13-2.5-13-6.2 0-4.8 11.3-6.2 15.5-1.9 1.4 1.3 2.5 2.9 2.5 3.4 0 .6.6.9 1.3.6.6-.2 3.2-.6 5.6-.9 2.4-.3 4.6-.8 4.9-1 .2-.3-.5-2.5-1.7-5-1.7-3.3-3.3-5-6.5-6.6-5.4-2.5-16.5-3.3-22.2-1.6zm55 .1c-1.8.7-3.5 1.8-3.8 2.4-.4.6-1.5 1.5-2.5 2.1-1.4.7-1.8.6-1.8-.8 0-3.4-.4-3.7-4.5-3.5-2.4.1-5.1.2-6 .2-1.7.1-1.8 2.3-1.8 32.1v32h13v-19.9l3.6 2.4c2 1.4 4.4 2.5 5.3 2.6.9 0 2.3.2 3.3.4 4.3.8 11.1-1.8 14.9-5.7 10.5-10.8 9-35.6-2.5-42.8-4.1-2.5-13-3.3-17.2-1.5zm9.3 11c4.4 3.1 6.1 16 2.9 22.7-3.7 7.8-14.5 7.8-18.2 0-1.2-2.5-1.5-5.4-1.2-10.9.3-7 .6-7.7 3.6-10.4 3.7-3.3 9.3-3.9 12.9-1.4zm35.8-11.6c-5.1 1.3-9.5 4.1-11.5 7.4-3.1 5-2.7 6.7 1.8 6.8 2 0 4.7.2 5.9.5 1.5.2 2.4-.2 2.8-1.7 1.4-4.3 10.2-5.3 14-1.4 2.6 2.5 3.4 7.5 1.3 7.6-20.3.8-28.2 4.7-29.7 14.4-1.5 10.2 4.5 16.8 15.4 16.6 6 0 10.1-1.4 13.3-4.3l2.2-2.1v2.6c0 2.8.2 2.9 4.5 2.9 1.4 0 3.8 0 5.3-.1l2.8-.1-.1-17.8c-.2-22.7-1.6-27-10-30.2-3.7-1.4-13.9-2-18-1.1zm15.5 29.7c0 .9-.7 3.1-1.6 4.9-3.6 7.7-18.3 7.7-16.9 0 .2-1.1.4-2.4.4-2.8.2-1.7 6.8-3.6 12.4-3.7 4.6 0 5.7.3 5.7 1.6z"/><path d="M261.2 137.5c-9.2 2.8-12.7 7.5-11.9 15.9.7 8 5.5 11.2 20.3 13.6 7 1.2 9.4 2.5 9.4 5.4 0 3.5-2.5 5-8.6 4.9-5.5 0-9.4-2.1-9.4-5 0-1.5.2-1.4-6.3-1.6-6.7-.3-7.3.3-5.9 5 2.5 8.4 11.3 12.5 25 11.7 7.8-.5 12.9-2.9 16-7.4 3.2-4.7 2.8-13.7-.8-17.5-2.3-2.4-8.5-4.9-15-6-1.9-.3-4.8-.8-6.5-1.1-4-.6-6.8-3.9-5.5-6.4 2.2-4.1 13.8-3.7 16.6.5 1.7 2.6 4.3 3.1 10.2 1.9 2.9-.6 3-.7 2-3.8-1.5-4.3-5.4-8.3-9.6-9.7-5-1.6-15.1-1.8-20-.4zm-89.2.3c-1.6.6-1.3 48.2.3 48.3 2.1.2 11.1-.2 11.5-.5.1-.2.4-7.4.5-16.1l.2-15.7 2.8-2.4c2.2-1.8 4-2.4 7.8-2.4h4.9v-12.3l-4.5.5c-2.7.4-5.9 1.6-8 3.2-3.4 2.6-4 2.4-3.6-1.2.1-.6-.6-1.2-1.6-1.3-1 0-3.5-.1-5.6-.2-2-.1-4.2-.1-4.7.1zm121.2 42.5c-1.4 1.6-.5 5.4 1.5 6.1 2.1.8 5.3-1.1 5.3-3.2 0-3.7-4.6-5.6-6.8-2.9zm4.5 2.8c.1 2.2.1 2.2-.4.1-.2-1.2-.9-2.2-1.5-2.2-.5 0-.8.7-.5 1.5.4.8.2 1.7-.2 1.9-.7.4-.8-2.7-.2-4.2.5-1.3 2.6.9 2.8 2.9z"/></svg>